# Blender 5.0.0
# www.blender.org
mtllib cube.mtl
o Cylinder
v 0.000000 -1.000000 -1.000000
v 0.943874 1.000000 0.330305
v 0.195090 -1.000000 -0.980785
v 0.861299 1.000000 0.508099
v 0.382683 -1.000000 -0.923880
v 0.745624 1.000000 0.666367
v 0.555570 -1.000000 -0.831470
v 0.601295 1.000000 0.799027
v 0.707107 -1.000000 -0.707107
v 0.433859 1.000000 0.900981
v 0.831470 -1.000000 -0.555570
v 0.249750 1.000000 0.968310
v 0.923880 -1.000000 -0.382683
v 0.056043 1.000000 0.998428
v 0.980785 -1.000000 -0.195090
v -0.139818 1.000000 0.990177
v 1.000000 -1.000000 0.000000
v -0.330305 1.000000 0.943874
v 0.980785 -1.000000 0.195090
v -0.508099 1.000000 0.861299
v 0.923880 -1.000000 0.382683
v -0.666367 1.000000 0.745624
v 0.831470 -1.000000 0.555570
v -0.799027 1.000000 0.601295
v 0.707107 -1.000000 0.707107
v -0.900981 1.000000 0.433859
v 0.555570 -1.000000 0.831470
v -0.968310 1.000000 0.249750
v 0.382683 -1.000000 0.923880
v -0.998428 1.000000 0.056043
v 0.195090 -1.000000 0.980785
v -0.990177 1.000000 -0.139818
v 0.000000 -1.000000 1.000000
v -0.943874 1.000000 -0.330305
v -0.195090 -1.000000 0.980785
v -0.861299 1.000000 -0.508099
v -0.382683 -1.000000 0.923880
v -0.745624 1.000000 -0.666367
v -0.555570 -1.000000 0.831470
v -0.601295 1.000000 -0.799027
v -0.707107 -1.000000 0.707107
v -0.433859 1.000000 -0.900981
v -0.831470 -1.000000 0.555570
v -0.249750 1.000000 -0.968310
v -0.923880 -1.000000 0.382683
v -0.056043 1.000000 -0.998428
v -0.980785 -1.000000 0.195090
v 0.139818 1.000000 -0.990177
v -1.000000 -1.000000 0.000000
v 0.330305 1.000000 -0.943874
v -0.980785 -1.000000 -0.195090
v 0.508099 1.000000 -0.861299
v -0.923880 -1.000000 -0.382683
v 0.666367 1.000000 -0.745624
v -0.831470 -1.000000 -0.555570
v 0.799027 1.000000 -0.601295
v -0.707107 -1.000000 -0.707107
v 0.900981 1.000000 -0.433859
v -0.555570 -1.000000 -0.831470
v 0.968310 1.000000 -0.249750
v -0.382683 -1.000000 -0.923880
v 0.998428 1.000000 -0.056043
v -0.195090 -1.000000 -0.980785
v 0.990177 1.000000 0.139817
vn 0.0800 0.5779 -0.8121
vn 0.2369 0.5779 -0.7809
vn 0.3847 0.5779 -0.7197
vn 0.5177 0.5779 -0.6308
vn 0.6308 0.5779 -0.5177
vn 0.7197 0.5779 -0.3847
vn 0.7809 0.5779 -0.2369
vn 0.8121 0.5779 -0.0800
vn 0.8121 0.5779 0.0800
vn 0.7809 0.5779 0.2369
vn 0.7197 0.5779 0.3847
vn 0.6308 0.5779 0.5177
vn 0.5177 0.5779 0.6308
vn 0.3847 0.5779 0.7197
vn 0.2369 0.5779 0.7809
vn 0.0800 0.5779 0.8121
vn -0.0800 0.5779 0.8121
vn -0.2369 0.5779 0.7809
vn -0.3847 0.5779 0.7197
vn -0.5177 0.5779 0.6308
vn -0.6308 0.5779 0.5177
vn -0.7197 0.5779 0.3847
vn -0.7809 0.5779 0.2369
vn -0.8121 0.5779 0.0800
vn -0.8121 0.5779 -0.0800
vn -0.7809 0.5779 -0.2369
vn -0.7197 0.5779 -0.3847
vn -0.6308 0.5779 -0.5177
vn -0.5177 0.5779 -0.6308
vn -0.3847 0.5779 -0.7197
vn -0.0000 1.0000 -0.0000
vn -0.2369 0.5779 -0.7809
vn -0.0800 0.5779 -0.8121
vn -0.0000 -1.0000 -0.0000
vn 0.7401 -0.5779 0.3438
vn 0.6589 -0.5779 0.4815
vn 0.5523 -0.5779 0.6008
vn 0.4244 -0.5779 0.6970
vn 0.2803 -0.5779 0.7664
vn 0.1254 -0.5779 0.8064
vn -0.0343 -0.5779 0.8153
vn -0.1928 -0.5779 0.7930
vn -0.3438 -0.5779 0.7401
vn -0.4815 -0.5779 0.6589
vn -0.6008 -0.5779 0.5523
vn -0.6970 -0.5779 0.4244
vn -0.7664 -0.5779 0.2803
vn -0.8064 -0.5779 0.1254
vn -0.8153 -0.5779 -0.0343
vn -0.7930 -0.5779 -0.1928
vn -0.7401 -0.5779 -0.3438
vn -0.6589 -0.5779 -0.4815
vn -0.5523 -0.5779 -0.6008
vn -0.4244 -0.5779 -0.6970
vn -0.2803 -0.5779 -0.7664
vn -0.1254 -0.5779 -0.8064
vn 0.0343 -0.5779 -0.8153
vn 0.1928 -0.5779 -0.7930
vn 0.3438 -0.5779 -0.7401
vn 0.4815 -0.5779 -0.6589
vn 0.6008 -0.5779 -0.5523
vn 0.6970 -0.5779 -0.4244
vn 0.7664 -0.5779 -0.2803
vn 0.8064 -0.5779 -0.1254
vn 0.8153 -0.5779 0.0343
vn 0.7930 -0.5779 0.1928
vt 1.000000 0.500000
vt 0.968750 1.000000
vt 0.968750 0.500000
vt 0.937500 1.000000
vt 0.937500 0.500000
vt 0.906250 1.000000
vt 0.906250 0.500000
vt 0.875000 1.000000
vt 0.875000 0.500000
vt 0.843750 1.000000
vt 0.843750 0.500000
vt 0.812500 1.000000
vt 0.812500 0.500000
vt 0.781250 1.000000
vt 0.781250 0.500000
vt 0.750000 1.000000
vt 0.750000 0.500000
vt 0.718750 1.000000
vt 0.718750 0.500000
vt 0.687500 1.000000
vt 0.687500 0.500000
vt 0.656250 1.000000
vt 0.656250 0.500000
vt 0.625000 1.000000
vt 0.625000 0.500000
vt 0.593750 1.000000
vt 0.593750 0.500000
vt 0.562500 1.000000
vt 0.562500 0.500000
vt 0.531250 1.000000
vt 0.531250 0.500000
vt 0.500000 1.000000
vt 0.500000 0.500000
vt 0.468750 1.000000
vt 0.468750 0.500000
vt 0.437500 1.000000
vt 0.437500 0.500000
vt 0.406250 1.000000
vt 0.406250 0.500000
vt 0.375000 1.000000
vt 0.375000 0.500000
vt 0.343750 1.000000
vt 0.343750 0.500000
vt 0.312500 1.000000
vt 0.312500 0.500000
vt 0.281250 1.000000
vt 0.281250 0.500000
vt 0.250000 1.000000
vt 0.250000 0.500000
vt 0.218750 1.000000
vt 0.218750 0.500000
vt 0.187500 1.000000
vt 0.187500 0.500000
vt 0.156250 1.000000
vt 0.156250 0.500000
vt 0.125000 1.000000
vt 0.125000 0.500000
vt 0.093750 1.000000
vt 0.093750 0.500000
vt 0.062500 1.000000
vt 0.062500 0.500000
vt 0.158156 0.028269
vt 0.471731 0.158156
vt 0.341844 0.471731
vt 0.031250 1.000000
vt 0.031250 0.500000
vt 0.000000 1.000000
vt 0.000000 0.500000
vt 0.796822 0.014612
vt 0.514612 0.203178
vt 0.703178 0.485388
vt 1.000000 1.000000
vt 0.296822 0.485388
vt 0.250000 0.490000
vt 0.203178 0.485388
vt 0.158156 0.471731
vt 0.116663 0.449553
vt 0.080294 0.419706
vt 0.050447 0.383337
vt 0.028269 0.341844
vt 0.014612 0.296822
vt 0.010000 0.250000
vt 0.014612 0.203178
vt 0.028269 0.158156
vt 0.050447 0.116663
vt 0.080294 0.080294
vt 0.116663 0.050447
vt 0.203178 0.014612
vt 0.250000 0.010000
vt 0.296822 0.014612
vt 0.341844 0.028269
vt 0.383337 0.050447
vt 0.419706 0.080294
vt 0.449553 0.116663
vt 0.485388 0.203178
vt 0.490000 0.250000
vt 0.485388 0.296822
vt 0.471731 0.341844
vt 0.449553 0.383337
vt 0.419706 0.419706
vt 0.383337 0.449553
vt 0.750000 0.490000
vt 0.796822 0.485388
vt 0.841844 0.471731
vt 0.883337 0.449553
vt 0.919706 0.419706
vt 0.949553 0.383337
vt 0.971731 0.341844
vt 0.985388 0.296822
vt 0.990000 0.250000
vt 0.985388 0.203178
vt 0.971731 0.158156
vt 0.949553 0.116663
vt 0.919706 0.080294
vt 0.883337 0.050447
vt 0.841844 0.028269
vt 0.750000 0.010000
vt 0.703178 0.014612
vt 0.658156 0.028269
vt 0.616663 0.050447
vt 0.580294 0.080294
vt 0.550447 0.116663
vt 0.528269 0.158156
vt 0.510000 0.250000
vt 0.514612 0.296822
vt 0.528269 0.341844
vt 0.550447 0.383337
vt 0.580294 0.419706
vt 0.616663 0.449553
vt 0.658156 0.471731
s 0
f 1/1/1 4/2/1 3/3/1
f 3/3/2 6/4/2 5/5/2
f 5/5/3 8/6/3 7/7/3
f 7/7/4 10/8/4 9/9/4
f 9/9/5 12/10/5 11/11/5
f 11/11/6 14/12/6 13/13/6
f 13/13/7 16/14/7 15/15/7
f 15/15/8 18/16/8 17/17/8
f 17/17/9 20/18/9 19/19/9
f 19/19/10 22/20/10 21/21/10
f 21/21/11 24/22/11 23/23/11
f 23/23/12 26/24/12 25/25/12
f 25/25/13 28/26/13 27/27/13
f 27/27/14 30/28/14 29/29/14
f 29/29/15 32/30/15 31/31/15
f 31/31/16 34/32/16 33/33/16
f 33/33/17 36/34/17 35/35/17
f 35/35/18 38/36/18 37/37/18
f 37/37/19 40/38/19 39/39/19
f 39/39/20 42/40/20 41/41/20
f 41/41/21 44/42/21 43/43/21
f 43/43/22 46/44/22 45/45/22
f 45/45/23 48/46/23 47/47/23
f 47/47/24 50/48/24 49/49/24
f 49/49/25 52/50/25 51/51/25
f 51/51/26 54/52/26 53/53/26
f 53/53/27 56/54/27 55/55/27
f 55/55/28 58/56/28 57/57/28
f 57/57/29 60/58/29 59/59/29
f 59/59/30 62/60/30 61/61/30
f 38/62/31 22/63/31 6/64/31
f 61/61/32 64/65/32 63/66/32
f 63/66/33 2/67/33 1/68/33
f 31/69/34 47/70/34 63/71/34
f 1/1/35 2/72/35 4/2/35
f 3/3/36 4/2/36 6/4/36
f 5/5/37 6/4/37 8/6/37
f 7/7/38 8/6/38 10/8/38
f 9/9/39 10/8/39 12/10/39
f 11/11/40 12/10/40 14/12/40
f 13/13/41 14/12/41 16/14/41
f 15/15/42 16/14/42 18/16/42
f 17/17/43 18/16/43 20/18/43
f 19/19/44 20/18/44 22/20/44
f 21/21/45 22/20/45 24/22/45
f 23/23/46 24/22/46 26/24/46
f 25/25/47 26/24/47 28/26/47
f 27/27/48 28/26/48 30/28/48
f 29/29/49 30/28/49 32/30/49
f 31/31/50 32/30/50 34/32/50
f 33/33/51 34/32/51 36/34/51
f 35/35/52 36/34/52 38/36/52
f 37/37/53 38/36/53 40/38/53
f 39/39/54 40/38/54 42/40/54
f 41/41/55 42/40/55 44/42/55
f 43/43/56 44/42/56 46/44/56
f 45/45/57 46/44/57 48/46/57
f 47/47/58 48/46/58 50/48/58
f 49/49/59 50/48/59 52/50/59
f 51/51/60 52/50/60 54/52/60
f 53/53/61 54/52/61 56/54/61
f 55/55/62 56/54/62 58/56/62
f 57/57/63 58/56/63 60/58/63
f 59/59/64 60/58/64 62/60/64
f 6/64/31 4/73/31 2/74/31
f 2/74/31 64/75/31 62/76/31
f 62/76/31 60/77/31 58/78/31
f 58/78/31 56/79/31 54/80/31
f 54/80/31 52/81/31 50/82/31
f 50/82/31 48/83/31 46/84/31
f 46/84/31 44/85/31 42/86/31
f 42/86/31 40/87/31 38/62/31
f 38/62/31 36/88/31 34/89/31
f 34/89/31 32/90/31 30/91/31
f 30/91/31 28/92/31 26/93/31
f 26/93/31 24/94/31 22/63/31
f 22/63/31 20/95/31 18/96/31
f 18/96/31 16/97/31 14/98/31
f 14/98/31 12/99/31 10/100/31
f 10/100/31 8/101/31 6/64/31
f 6/64/31 2/74/31 62/76/31
f 62/76/31 58/78/31 54/80/31
f 54/80/31 50/82/31 46/84/31
f 46/84/31 42/86/31 38/62/31
f 38/62/31 34/89/31 30/91/31
f 30/91/31 26/93/31 22/63/31
f 22/63/31 18/96/31 14/98/31
f 14/98/31 10/100/31 6/64/31
f 6/64/31 62/76/31 54/80/31
f 54/80/31 46/84/31 38/62/31
f 38/62/31 30/91/31 22/63/31
f 22/63/31 14/98/31 6/64/31
f 6/64/31 54/80/31 38/62/31
f 61/61/65 62/60/65 64/65/65
f 63/66/66 64/65/66 2/67/66
f 63/71/34 1/102/34 3/103/34
f 3/103/34 5/104/34 7/105/34
f 7/105/34 9/106/34 11/107/34
f 11/107/34 13/108/34 15/109/34
f 15/109/34 17/110/34 19/111/34
f 19/111/34 21/112/34 23/113/34
f 23/113/34 25/114/34 27/115/34
f 27/115/34 29/116/34 31/69/34
f 31/69/34 33/117/34 35/118/34
f 35/118/34 37/119/34 39/120/34
f 39/120/34 41/121/34 43/122/34
f 43/122/34 45/123/34 47/70/34
f 47/70/34 49/124/34 51/125/34
f 51/125/34 53/126/34 55/127/34
f 55/127/34 57/128/34 59/129/34
f 59/129/34 61/130/34 63/71/34
f 63/71/34 3/103/34 7/105/34
f 7/105/34 11/107/34 15/109/34
f 15/109/34 19/111/34 23/113/34
f 23/113/34 27/115/34 31/69/34
f 31/69/34 35/118/34 39/120/34
f 39/120/34 43/122/34 47/70/34
f 47/70/34 51/125/34 55/127/34
f 55/127/34 59/129/34 63/71/34
f 63/71/34 7/105/34 15/109/34
f 15/109/34 23/113/34 31/69/34
f 31/69/34 39/120/34 47/70/34
f 47/70/34 55/127/34 63/71/34
f 63/71/34 15/109/34 31/69/34
